<svg width="1000" height="1000" viewBox="0 0 1000 1000" fill="none" xmlns="http://www.w3.org/2000/svg">
<rect width="1000" height="1000" fill="#3140A7"/>
<path fill-rule="evenodd" clip-rule="evenodd" d="M726.073 583.463C726.073 708.576 624.649 810 499.537 810C374.424 810 273 708.576 273 583.463V261.399L499.537 513.865L531.898 477.798L529.56 480.43V547.53L641.307 672.167C656.983 646.777 666.028 616.859 666.028 584.828V464.736C666.028 429.617 637.802 401.091 602.799 400.603C602.533 400.599 602.265 400.597 601.998 400.596H601.172L726.073 261.399V583.463ZM333.046 583.541C333.045 586.55 332.972 589.541 333.131 592.511C337.83 680.254 410.466 749.954 499.381 749.954C536.849 749.954 571.426 737.577 599.248 716.689C599.546 716.465 599.844 716.24 600.14 716.014L599.578 715.389L333.046 418.337V583.541Z" fill="white"/>
<path d="M565.041 328.268C545.445 328.268 529.56 344.154 529.56 363.75V548.664H469.514V363.75C469.514 344.154 453.628 328.268 434.032 328.268L499.537 215L565.041 328.268Z" fill="white"/>
</svg>
